<svg xmlns="http://www.w3.org/2000/svg" width="1280" height="128" viewBox="0 0 1280 128">
<rect width="1280" height="128" fill="none"/>
<g transform="translate(64 0) rotate(0 0 82)" stroke="#211b1a" stroke-width="4" stroke-linecap="round" stroke-linejoin="round"><path d="M-29 68 Q0 12 29 68 L25 80 H-25Z" fill="#69cde1"/><path d="M-20 78 Q-4 96 -10 112 M0 78 Q4 98 4 114 M18 78 Q8 93 24 110" fill="none" stroke="#69cde1" stroke-width="6"/><circle cx="9" cy="35" r="4" fill="#fff36b"/></g>
<g transform="translate(192 0) rotate(0 0 82)" stroke="#211b1a" stroke-width="4" stroke-linecap="round" stroke-linejoin="round"><path d="M-29 66 Q0 12 29 66 L25 78 H-25Z" fill="#69cde1"/><path d="M-20 76 Q-4 94 -10 112 M0 76 Q4 96 4 114 M18 76 Q8 91 24 110" fill="none" stroke="#69cde1" stroke-width="6"/><circle cx="9" cy="35" r="4" fill="#fff36b"/></g>
<g transform="translate(320 0) rotate(-4 0 82)" stroke="#211b1a" stroke-width="4" stroke-linecap="round" stroke-linejoin="round"><path d="M-29 68 Q0 14 29 68 L25 80 H-25Z" fill="#69cde1"/><path d="M-20 78 Q-7 96 -10 112 M0 78 Q7 98 4 114 M18 78 Q14 93 24 110" fill="none" stroke="#69cde1" stroke-width="6"/><circle cx="9" cy="37" r="4" fill="#fff36b"/></g>
<g transform="translate(448 0) rotate(4 0 82)" stroke="#211b1a" stroke-width="4" stroke-linecap="round" stroke-linejoin="round"><path d="M-29 67 Q0 13 29 67 L25 79 H-25Z" fill="#69cde1"/><path d="M-20 77 Q-7 95 -10 112 M0 77 Q7 97 4 114 M18 77 Q14 92 24 110" fill="none" stroke="#69cde1" stroke-width="6"/><circle cx="9" cy="36" r="4" fill="#fff36b"/></g>
<g transform="translate(576 0) rotate(-8 0 82)" stroke="#211b1a" stroke-width="4" stroke-linecap="round" stroke-linejoin="round"><path d="M-29 68 Q0 12 29 68 L25 80 H-25Z" fill="#69cde1"/><path d="M-20 78 Q-5 96 -10 112 M0 78 Q5 98 4 114 M18 78 Q10 93 24 110" fill="none" stroke="#69cde1" stroke-width="6"/><circle cx="9" cy="35" r="4" fill="#fff36b"/></g>
<g transform="translate(704 0) rotate(10 0 82)" stroke="#211b1a" stroke-width="4" stroke-linecap="round" stroke-linejoin="round"><path d="M-29 69 Q0 16 29 69 L25 81 H-25Z" fill="#69cde1"/><path d="M-20 79 Q-6 97 -10 112 M0 79 Q6 99 4 114 M18 79 Q12 94 24 110" fill="none" stroke="#69cde1" stroke-width="6"/><circle cx="9" cy="39" r="4" fill="#fff36b"/></g>
<g transform="translate(832 0) rotate(-15 0 82)" stroke="#211b1a" stroke-width="4" stroke-linecap="round" stroke-linejoin="round"><path d="M-29 70 Q0 8 29 70 L25 82 H-25Z" fill="#69cde1"/><path d="M-20 80 Q-5 98 -10 112 M0 80 Q5 100 4 114 M18 80 Q10 95 24 110" fill="none" stroke="#69cde1" stroke-width="6"/><circle cx="9" cy="31" r="4" fill="#fff36b"/></g>
<g transform="translate(960 0) rotate(-23 0 82)" stroke="#211b1a" stroke-width="4" stroke-linecap="round" stroke-linejoin="round"><path d="M-29 72 Q0 5 29 72 L25 84 H-25Z" fill="#69cde1"/><path d="M-20 82 Q-6 100 -10 112 M0 82 Q6 102 4 114 M18 82 Q12 97 24 110" fill="none" stroke="#69cde1" stroke-width="6"/><circle cx="9" cy="28" r="4" fill="#fff36b"/></g>
<g transform="translate(1088 0) rotate(58 0 82)" stroke="#211b1a" stroke-width="4" stroke-linecap="round" stroke-linejoin="round"><path d="M-29 83 Q0 24 29 83 L25 95 H-25Z" fill="#69cde1"/><path d="M-20 93 Q-6 111 -10 112 M0 93 Q6 113 4 114 M18 93 Q12 108 24 110" fill="none" stroke="#69cde1" stroke-width="6"/><circle cx="9" cy="47" r="4" fill="#fff36b"/></g>
<g transform="translate(1216 0) rotate(88 0 82)" stroke="#211b1a" stroke-width="4" stroke-linecap="round" stroke-linejoin="round"><path d="M-29 87 Q0 30 29 87 L25 99 H-25Z" fill="#69cde1"/><path d="M-20 97 Q-5 115 -10 112 M0 97 Q5 117 4 114 M18 97 Q10 112 24 110" fill="none" stroke="#69cde1" stroke-width="6"/><circle cx="9" cy="53" r="4" fill="#fff36b"/></g>
</svg>
