<svg xmlns="http://www.w3.org/2000/svg" width="1280" height="128" viewBox="0 0 1280 128">
<rect width="1280" height="128" fill="none"/>
<g transform="translate(64 0) rotate(0 0 82)" stroke="#211b1a" stroke-width="4" stroke-linecap="round" stroke-linejoin="round"><path d="M-15 86 L-2 113 M15 86 L2 113" fill="none" stroke="#9b6648" stroke-width="12"/><path d="M-18 60 L-18 77 M18 60 L18 77" fill="none" stroke="#9b6648" stroke-width="11"/><ellipse cx="0" cy="68" rx="25" ry="29" fill="#9b6648"/><path d="M-23 60 Q0 50 23 60 L18 88 Q0 96 -18 88Z" fill="#586b70"/><ellipse cx="2" cy="35" rx="20" ry="21" fill="#9b6648"/><circle cx="9" cy="33" r="3" fill="#ffe06a"/><ellipse cx="9" cy="43" rx="15" ry="28" fill="#9b6648"/><path d="M1 23 L-2 3 M17 23 L20 3" stroke="#9b6648" stroke-width="8"/><path d="M18 75 L53 39" stroke="#b9a473" stroke-width="5"/><path d="M53 39 l12 -4 -8 11Z" fill="#d9e2df"/></g>
<g transform="translate(192 0) rotate(0 0 82)" stroke="#211b1a" stroke-width="4" stroke-linecap="round" stroke-linejoin="round"><path d="M-15 84 L-1 113 M15 84 L1 113" fill="none" stroke="#9b6648" stroke-width="12"/><path d="M-18 58 L-14 75 M18 58 L14 75" fill="none" stroke="#9b6648" stroke-width="11"/><ellipse cx="0" cy="66" rx="25" ry="29" fill="#9b6648"/><path d="M-23 58 Q0 48 23 58 L18 86 Q0 94 -18 86Z" fill="#586b70"/><ellipse cx="2" cy="35" rx="20" ry="21" fill="#9b6648"/><circle cx="9" cy="33" r="3" fill="#ffe06a"/><ellipse cx="9" cy="43" rx="15" ry="28" fill="#9b6648"/><path d="M1 23 L-2 3 M17 23 L20 3" stroke="#9b6648" stroke-width="8"/><path d="M14 73 L49 37" stroke="#b9a473" stroke-width="5"/><path d="M49 37 l12 -4 -8 11Z" fill="#d9e2df"/></g>
<g transform="translate(320 0) rotate(-4 0 82)" stroke="#211b1a" stroke-width="4" stroke-linecap="round" stroke-linejoin="round"><path d="M-15 86 L-14 113 M15 86 L14 113" fill="none" stroke="#9b6648" stroke-width="12"/><path d="M-18 60 L20 77 M18 60 L-20 77" fill="none" stroke="#9b6648" stroke-width="11"/><ellipse cx="0" cy="68" rx="25" ry="29" fill="#9b6648"/><path d="M-23 60 Q0 50 23 60 L18 88 Q0 96 -18 88Z" fill="#586b70"/><ellipse cx="2" cy="37" rx="20" ry="21" fill="#9b6648"/><circle cx="9" cy="35" r="3" fill="#ffe06a"/><ellipse cx="9" cy="45" rx="15" ry="28" fill="#9b6648"/><path d="M1 25 L-2 5 M17 25 L20 5" stroke="#9b6648" stroke-width="8"/><path d="M-20 75 L15 39" stroke="#b9a473" stroke-width="5"/><path d="M15 39 l12 -4 -8 11Z" fill="#d9e2df"/></g>
<g transform="translate(448 0) rotate(4 0 82)" stroke="#211b1a" stroke-width="4" stroke-linecap="round" stroke-linejoin="round"><path d="M-15 85 L14 113 M15 85 L-14 113" fill="none" stroke="#9b6648" stroke-width="12"/><path d="M-18 59 L-20 76 M18 59 L20 76" fill="none" stroke="#9b6648" stroke-width="11"/><ellipse cx="0" cy="67" rx="25" ry="29" fill="#9b6648"/><path d="M-23 59 Q0 49 23 59 L18 87 Q0 95 -18 87Z" fill="#586b70"/><ellipse cx="2" cy="36" rx="20" ry="21" fill="#9b6648"/><circle cx="9" cy="34" r="3" fill="#ffe06a"/><ellipse cx="9" cy="44" rx="15" ry="28" fill="#9b6648"/><path d="M1 24 L-2 4 M17 24 L20 4" stroke="#9b6648" stroke-width="8"/><path d="M20 74 L55 38" stroke="#b9a473" stroke-width="5"/><path d="M55 38 l12 -4 -8 11Z" fill="#d9e2df"/></g>
<g transform="translate(576 0) rotate(-8 0 82)" stroke="#211b1a" stroke-width="4" stroke-linecap="round" stroke-linejoin="round"><path d="M-15 86 L-4 113 M15 86 L4 113" fill="none" stroke="#9b6648" stroke-width="12"/><path d="M-18 60 L-55 77 M18 60 L12 77" fill="none" stroke="#9b6648" stroke-width="11"/><ellipse cx="0" cy="68" rx="25" ry="29" fill="#9b6648"/><path d="M-23 60 Q0 50 23 60 L18 88 Q0 96 -18 88Z" fill="#586b70"/><ellipse cx="2" cy="35" rx="20" ry="21" fill="#9b6648"/><circle cx="9" cy="33" r="3" fill="#ffe06a"/><ellipse cx="9" cy="43" rx="15" ry="28" fill="#9b6648"/><path d="M1 23 L-2 3 M17 23 L20 3" stroke="#9b6648" stroke-width="8"/><path d="M12 75 L47 39" stroke="#b9a473" stroke-width="5"/><path d="M47 39 l12 -4 -8 11Z" fill="#d9e2df"/></g>
<g transform="translate(704 0) rotate(10 0 82)" stroke="#211b1a" stroke-width="4" stroke-linecap="round" stroke-linejoin="round"><path d="M-15 87 L-10 113 M15 87 L10 113" fill="none" stroke="#9b6648" stroke-width="12"/><path d="M-18 61 L18 78 M18 61 L-70 78" fill="none" stroke="#9b6648" stroke-width="11"/><ellipse cx="0" cy="69" rx="25" ry="29" fill="#9b6648"/><path d="M-23 61 Q0 51 23 61 L18 89 Q0 97 -18 89Z" fill="#586b70"/><ellipse cx="2" cy="39" rx="20" ry="21" fill="#9b6648"/><circle cx="9" cy="37" r="3" fill="#ffe06a"/><ellipse cx="9" cy="47" rx="15" ry="28" fill="#9b6648"/><path d="M1 27 L-2 7 M17 27 L20 7" stroke="#9b6648" stroke-width="8"/><path d="M-70 76 L-35 40" stroke="#b9a473" stroke-width="5"/><path d="M-35 40 l12 -4 -8 11Z" fill="#d9e2df"/></g>
<g transform="translate(832 0) rotate(-15 0 82)" stroke="#211b1a" stroke-width="4" stroke-linecap="round" stroke-linejoin="round"><path d="M-15 88 L-5 113 M15 88 L5 113" fill="none" stroke="#9b6648" stroke-width="12"/><path d="M-18 62 L38 79 M18 62 L-36 79" fill="none" stroke="#9b6648" stroke-width="11"/><ellipse cx="0" cy="70" rx="25" ry="29" fill="#9b6648"/><path d="M-23 62 Q0 52 23 62 L18 90 Q0 98 -18 90Z" fill="#586b70"/><ellipse cx="2" cy="31" rx="20" ry="21" fill="#9b6648"/><circle cx="9" cy="29" r="3" fill="#ffe06a"/><ellipse cx="9" cy="39" rx="15" ry="28" fill="#9b6648"/><path d="M1 19 L-2 -1 M17 19 L20 -1" stroke="#9b6648" stroke-width="8"/><path d="M-36 77 L-1 41" stroke="#b9a473" stroke-width="5"/><path d="M-1 41 l12 -4 -8 11Z" fill="#d9e2df"/></g>
<g transform="translate(960 0) rotate(-23 0 82)" stroke="#211b1a" stroke-width="4" stroke-linecap="round" stroke-linejoin="round"><path d="M-15 90 L-8 113 M15 90 L8 113" fill="none" stroke="#9b6648" stroke-width="12"/><path d="M-18 64 L45 81 M18 64 L-42 81" fill="none" stroke="#9b6648" stroke-width="11"/><ellipse cx="0" cy="72" rx="25" ry="29" fill="#9b6648"/><path d="M-23 64 Q0 54 23 64 L18 92 Q0 100 -18 92Z" fill="#586b70"/><ellipse cx="2" cy="28" rx="20" ry="21" fill="#9b6648"/><circle cx="9" cy="26" r="3" fill="#ffe06a"/><ellipse cx="9" cy="36" rx="15" ry="28" fill="#9b6648"/><path d="M1 16 L-2 -4 M17 16 L20 -4" stroke="#9b6648" stroke-width="8"/><path d="M-42 79 L-7 43" stroke="#b9a473" stroke-width="5"/><path d="M-7 43 l12 -4 -8 11Z" fill="#d9e2df"/></g>
<g transform="translate(1088 0) rotate(58 0 82)" stroke="#211b1a" stroke-width="4" stroke-linecap="round" stroke-linejoin="round"><path d="M-15 101 L-8 113 M15 101 L8 113" fill="none" stroke="#9b6648" stroke-width="12"/><path d="M-18 75 L25 92 M18 75 L-25 92" fill="none" stroke="#9b6648" stroke-width="11"/><ellipse cx="0" cy="83" rx="25" ry="29" fill="#9b6648"/><path d="M-23 75 Q0 65 23 75 L18 103 Q0 111 -18 103Z" fill="#586b70"/><ellipse cx="2" cy="47" rx="20" ry="21" fill="#9b6648"/><circle cx="9" cy="45" r="3" fill="#ffe06a"/><ellipse cx="9" cy="55" rx="15" ry="28" fill="#9b6648"/><path d="M1 35 L-2 15 M17 35 L20 15" stroke="#9b6648" stroke-width="8"/><path d="M-25 90 L10 54" stroke="#b9a473" stroke-width="5"/><path d="M10 54 l12 -4 -8 11Z" fill="#d9e2df"/></g>
<g transform="translate(1216 0) rotate(88 0 82)" stroke="#211b1a" stroke-width="4" stroke-linecap="round" stroke-linejoin="round"><path d="M-15 105 L-5 113 M15 105 L5 113" fill="none" stroke="#9b6648" stroke-width="12"/><path d="M-18 79 L20 96 M18 79 L-20 96" fill="none" stroke="#9b6648" stroke-width="11"/><ellipse cx="0" cy="87" rx="25" ry="29" fill="#9b6648"/><path d="M-23 79 Q0 69 23 79 L18 107 Q0 115 -18 107Z" fill="#586b70"/><ellipse cx="2" cy="53" rx="20" ry="21" fill="#9b6648"/><circle cx="9" cy="51" r="3" fill="#ffe06a"/><ellipse cx="9" cy="61" rx="15" ry="28" fill="#9b6648"/><path d="M1 41 L-2 21 M17 41 L20 21" stroke="#9b6648" stroke-width="8"/><path d="M-20 94 L15 58" stroke="#b9a473" stroke-width="5"/><path d="M15 58 l12 -4 -8 11Z" fill="#d9e2df"/></g>
</svg>
